<?xml version="1.0" standalone="no"?>
<!DOCTYPE svg PUBLIC "-//W3C//DTD SVG 20010904//EN"
 "http://www.w3.org/TR/2001/REC-SVG-20010904/DTD/svg10.dtd">
<svg version="1.0" xmlns="http://www.w3.org/2000/svg"
 width="50.000000pt" height="50.000000pt" viewBox="0 0 50.000000 50.000000"
 preserveAspectRatio="xMidYMid meet">

<g transform="translate(0.000000,50.000000) scale(0.100000,-0.100000)"
fill="#000000" stroke="none">
<path d="M257 433 c-4 -3 -7 -59 -7 -123 0 -77 -4 -120 -12 -128 -7 -7 -29
-12 -49 -12 -43 0 -69 -21 -69 -55 0 -50 90 -75 130 -35 18 18 20 33 20 146 0
141 -4 136 76 103 46 -18 64 -7 64 41 0 37 -2 40 -27 40 -16 1 -39 7 -53 15
-27 15 -62 19 -73 8z m63 -28 c14 -8 35 -14 48 -15 17 0 22 -6 22 -26 0 -29
-6 -29 -82 -2 -29 10 -38 18 -38 35 0 26 14 28 50 8z m-70 -266 c0 -38 -19
-59 -53 -59 -37 0 -57 15 -57 42 0 17 12 22 70 31 14 3 28 5 33 6 4 0 7 -8 7
-20z"/>
</g>
</svg>
